# xmcd
#
# Track frame offsets: 
#        150
#        34442
#        62192
#        88582
#        114480
#        133917
#        143080
#        161940
#        191507
#        213857
#        227342
#        250600
#        268902
#        286272
#
# Disc length: 4335 seconds
#
# Revision: 2
# Processed by: cddbd v1.5.2PL0 Copyright (c) Steve Scherf et al.
# Submitted via: ExactAudioCopy v1.0b3
#
DISCID=cf10ed0e
DTITLE=Various Artist - DJ.D - Love Parade Volume 3
DYEAR=1994
DGENRE=Trance
TTITLE0=Taucher - Atlantis
TTITLE1=Marmion - Schoeneberg
TTITLE2=Onda Del Future - Terra
TTITLE3=Sonic Infusion - Unfuture
TTITLE4=Technohead - The Passion
TTITLE5=Interactive - Kotia
TTITLE6=Adam and Eve Project - Auah
TTITLE7=Jens - Loops and Things
TTITLE8=Cardiac Interaction - Flying
TTITLE9=Dance Overdose - Overdose Stomp
TTITLE10=Jones and Stephenson - First Rebirth
TTITLE11=Phrenetic System - Reality
TTITLE12=Dream Your Dream - Soushkin
TTITLE13=Lunatic Asylum - The Melt
EXTD=
EXTT0=
EXTT1=
EXTT2=
EXTT3=
EXTT4=
EXTT5=
EXTT6=
EXTT7=
EXTT8=
EXTT9=
EXTT10=
EXTT11=
EXTT12=
EXTT13=
PLAYORDER=
